<?xml version="1.0" encoding="utf-8" ?>
<svg baseProfile="full" height="200mm" version="1.1" viewBox="0,0,200,200" width="200mm" xmlns="http://www.w3.org/2000/svg" xmlns:ev="http://www.w3.org/2001/xml-events" xmlns:xlink="http://www.w3.org/1999/xlink"><defs /><rect fill="#1a1a1a" height="200" width="200" x="0" y="0" /><text alignment-baseline="middle" fill="#e1ed5e" style="dominant-baseline: central; font-size:9.0px; font-family:Arial;" text-anchor="middle" x="100.0" y="100.0">2021</text><line stroke="#e1ed5e" stroke-width="0.3" x1="100.0" x2="100.0" y1="15.0" y2="10.0" /><path d="M 100.0 14.0 a86.0,86.0 0 0,1 42.46469731375804,11.215312516191453" fill="none" id="id1" stroke="none" /><text fill="#e1ed5e" style="font-size:6.75px; font-family:Arial;" text-anchor="middle"><textPath startOffset="22.20632615414155" xlink:href="#id1">January</textPath></text><line stroke="#e1ed5e" stroke-width="0.3" x1="143.23703022742887" x2="145.7803849466894" y1="26.818313649435467" y2="22.513508569990506" /><path d="M 143.74570117128098 25.957352633546478 a86.0,86.0 0 0,1 28.547481713284135,27.462654790039114" fill="none" id="id2" stroke="none" /><text fill="#e1ed5e" style="font-size:6.75px; font-family:Arial;" text-anchor="middle"><textPath startOffset="19.985693538727396" xlink:href="#id2">February</textPath></text><line stroke="#e1ed5e" stroke-width="0.3" x1="172.23445277983987" x2="176.4835382374775" y1="55.19839476539836" y2="52.563006222186495" /><path d="M 173.08426987136738 54.67131705675599 a86.0,86.0 0 0,1 12.851231095245387,41.99856678651699" fill="none" id="id3" stroke="none" /><text fill="#e1ed5e" style="font-size:6.75px; font-family:Arial;" text-anchor="middle"><textPath startOffset="22.20632615414155" xlink:href="#id3">March</textPath></text><line stroke="#e1ed5e" stroke-width="0.3" x1="184.98032266829074" x2="189.97916517819016" y1="98.17113171792111" y2="98.06355123074" /><path d="M 185.9800911702706 98.14961562048488 a86.0,86.0 0 0,1 -9.607161424134198,41.387399972396054" fill="none" id="id4" stroke="none" /><text fill="#e1ed5e" style="font-size:6.75px; font-family:Arial;" text-anchor="middle"><textPath startOffset="21.466115282336823" xlink:href="#id4">April</textPath></text><line stroke="#e1ed5e" stroke-width="0.3" x1="174.80103733775053" x2="179.2010983576182" y1="140.37084112569926" y2="142.7455964860345" /><path d="M 175.68104954172406 140.8457921977663 a86.0,86.0 0 0,1 -30.038265399797805,32.042727171017184" fill="none" id="id5" stroke="none" /><text fill="#e1ed5e" style="font-size:6.75px; font-family:Arial;" text-anchor="middle"><textPath startOffset="22.206326154141568" xlink:href="#id5">May</textPath></text><path d="M 118.12598468904814 110.60418214915192 l 8.877436427131752 5.193535937813103 a31.28502275423453,31.28502275423453 0 0,0 -0.27593259610953724,0.4624789026928645 l -8.786722955323985 -5.345576934392072" fill="#ff6e0a" stroke="none" /><path d="M 117.75023020441432 111.22182372390056 l 18.13616611167834 11.465815191626039 a42.4565943066208,42.4565943066208 0 0,0 -0.39584736584809366,0.6143639024133228 l -17.936113882453192 -11.776300693960817" fill="#fcff18" stroke="none" /><path d="M 117.35343817320211 111.8261652097733 l 2.243905081410189 1.5291950760965565 a23.71542770022264,23.71542770022264 0 0,0 -0.23279413106598984,0.3353573084072935 l -2.2172500431820605 -1.5675936466908673" fill="#ff0000" stroke="none" /><path d="M 116.93607887273984 112.41649034213513 l 17.099688637730853 12.536438949020743 a42.20286898110409,42.20286898110409 0 0,0 -0.4345664252527161,0.5821727424562712 l -16.881360945783047 -12.828924570986329" fill="#fffe18" stroke="none" /><path d="M 116.71984013943494 112.70617746262582 l 8.170881953331383 6.209429950249754 a31.262569473691038,31.262569473691038 0 0,0 -0.3292889163727131,0.42565031300435885 l -8.062786219740602 -6.349158257367365" fill="#ff6e0a" stroke="none" /><path d="M 116.27256486870786 113.27417163493432 l 16.412191104497875 13.38807025101424 a42.180189845623474,42.180189845623474 0 0,0 -0.46378926479067634,0.5586640465887769 l -16.179305839813654 -13.668595554716784" fill="#fffe18" stroke="none" /><path d="M 116.0416608686014 113.55231037782055 l 7.809004917691176 6.597200829349331 a31.222701041666653,31.222701041666653 0 0,0 -0.3503744462809963,0.4075646372168558 l -7.6942879618393984 -6.730642565727717" fill="#ff6d0a" stroke="none" /><path d="M 115.32070863581623 114.36230785411682 l 31.693467628974958 29.710854104208547 a64.44203887883774,64.44203887883774 0 0,0 -0.7656126912405822,0.8027418458865473 l -31.177348386355412 -30.2520030666776" fill="#34ff5c" stroke="none" /><path d="M 114.81725581225074 114.88116024355365 l 2.8821393164783498 2.8945695178792756 a25.084759446212978,25.084759446212978 0 0,0 -0.3086023236938509,0.302032325913669 l -2.831887040408705 -2.9437519467155147" fill="#ff1402" stroke="none" /><path d="M 114.55890576462653 115.13401014063108 l 18.234318395887215 18.954608538049833 a47.301474334974124,47.301474334974124 0 0,0 -0.5916382042038384,0.5594308502694862 l -17.90534435729257 -19.265674025065245" fill="#c2ff1e" stroke="none" /><path d="M 114.0293411484842 115.62618273729858 l 9.009302526401324 10.034755454525635 a34.48569052901457,34.48569052901457 0 0,0 -0.4451242920564886,0.3927704340258495 l -8.835235881438248 -10.188349030323774" fill="#ff9a0e" stroke="none" /><path d="M 113.75828350139079 115.86535959552629 l 15.566506373974345 17.950511140738563 a44.75998676146018,44.75998676146018 0 0,0 -0.5864294107634296,0.4997678661669621 l -15.255211486633868 -18.21580339712847" fill="#e0ff1b" stroke="none" /><path d="M 113.48314897796784 116.09983520530334 l 2.6736904132428196 3.1925757932029177 a25.164271919701186,25.164271919701186 0 0,0 -0.334480951724411,0.27525505192193356 l -2.6183393329737172 -3.2381259639820295" fill="#ff1602" stroke="none" /><path d="M 112.92097659922987 116.55440617244103 l 14.567049831558458 18.66336168894389 a44.67530380644451,44.67530380644451 0 0,0 -0.6102886289473427,0.46794329663465106 l -14.243632474117621 -18.911344327405914" fill="#e1ff1b" stroke="none" /><path d="M 112.34349029814194 116.9893568818739 l 9.388056010412116 12.921550561101968 a36.97191486822258,36.97191486822258 0 0,0 -0.5180868658483531,0.3696412227233503 l -9.164241816714878 -13.081236045669538" fill="#ffbb11" stroke="none" /><path d="M 112.04921762599082 117.19931262002967 l 13.659165598900364 19.49738701353431 a44.805900638575295,44.805900638575295 0 0,0 -0.6354823349271814,0.4370905446002171 l -13.3215263793503 -19.729618347499624" fill="#e0ff1b" stroke="none" /><path d="M 111.7513745106137 117.40417183066458 l 22.57351484557539 33.432117310159185 a61.33943530000956,61.33943530000956 0 0,0 -0.8801487533759933,0.5833146006929976 l -21.99469139345943 -33.8157299319435" fill="#30ff36" stroke="none" /><line stroke="#e1ed5e" stroke-width="0.3" x1="143.8653032363475" x2="146.44561519142675" y1="172.8068346515853" y2="177.08958963109032" /><path d="M 144.38136562736335 173.6633856474863 a86.0,86.0 0 0,1 -40.68145358897372,12.25698825130547" fill="none" id="id6" stroke="none" /><text fill="#e1ed5e" style="font-size:6.75px; font-family:Arial;" text-anchor="middle"><textPath startOffset="21.466115282336833" xlink:href="#id6">June</textPath></text><path d="M 110.21172684928248 118.3499491758327 l 9.949134540674482 17.878084271097208 a41.45998962152463,41.45998962152463 0 0,0 -0.626593091715926,0.34166851342608245 l -9.639918637089906 -18.04669343628306" fill="#fff517" stroke="none" /><path d="M 109.57404056367764 118.69057910512821 l 5.54231611326576 10.81978889181029 a33.156689498490394,33.156689498490394 0 0,0 -0.510212125981582,0.2558309517971556 l -5.355250079601417 -10.913587684516749" fill="#ff880c" stroke="none" /><path d="M 108.59647513512805 119.15986991738527 l 8.658748444244045 19.298665002956106 a42.152125082767014,42.152125082767014 0 0,0 -0.6645570063878345,0.291322262070258 l -8.325270763198457 -19.444851818320817" fill="#fffe18" stroke="none" /><path d="M 107.93186726928326 119.44442032107085 l 8.507747817070195 20.85615138586834 a43.5246714415354,43.5246714415354 0 0,0 -0.6961438004482964,0.27700998496906004 l -8.147482940580034 -20.99950821524347" fill="#efff19" stroke="none" /><path d="M 106.91757812671514 119.82793768551818 l 6.07975538409121 17.426476245118717 a39.4565841870069,39.4565841870069 0 0,0 -0.6431991905772789,0.21820808736579672 l -5.778886460576704 -17.52854731938264" fill="#ffdc14" stroke="none" /><path d="M 106.2309692047433 120.05430185196036 l 3.037618872215808 9.776540979893479 a31.237572072731805,31.237572072731805 0 0,0 -0.5148621634332837,0.15512374636372053 l -2.8688817343422786 -9.827380095362924" fill="#ff6d0a" stroke="none" /><path d="M 104.83641907484287 120.43548508189849 l 5.901304395050789 24.93498103919388 a46.62379115174029,46.62379115174029 0 0,0 -0.7825689019001805,0.17811013424687913 l -5.471215343757747 -25.032867907018442" fill="#caff1d" stroke="none" /><path d="M 104.48393922423573 120.51570834832081 l 2.1521061450497547 9.846695014916339 a31.07913506092359,31.07913506092359 0 0,0 -0.5236220645687788,0.10973009471235945 l -1.982292619051598 -9.882281090355239" fill="#ff6b09" stroke="none" /><path d="M 103.41894727170886 120.7198165907248 l 2.1179516430566694 12.835404030733859 a34.00897058934739,34.00897058934739 0 0,0 -0.5784183147670287,0.09033704499315692 l -1.8966974646811239 -12.869959383074121" fill="#ff930d" stroke="none" /><path d="M 103.06178313531737 120.77559828337769 l 1.4539130299974885 9.86546457251461 a30.972023582520116,30.972023582520116 0 0,0 -0.528104577047032,0.07319048227885336 l -1.2838798617636256 -9.889029620286065" fill="#ff6909" stroke="none" /><path d="M 102.34483914955558 120.86867818915974 l 1.2117073012877102 10.783993322024234 a31.851854521392056,31.851854521392056 0 0,0 -0.5453756487406207,0.05653041589845662 l -1.0258990559414867 -10.803253106378449" fill="#ff760a" stroke="none" /><path d="M 101.98527174616119 120.90594882070398 l 1.047262252238364 11.028218725968197 a32.07783221089573,32.07783221089573 0 0,0 -0.5501435021565473,0.04746869624919811 l -0.8572744323402749 -11.044611674496057" fill="#ff790b" stroke="none" /><path d="M 101.62511606390274 120.93702456842531 l 0.3877706585064447 4.9958055208479095 a26.01083215501507,26.01083215501507 0 0,0 -0.44668927134415565,0.03080630743829842 l -0.301718626383359 -5.001740172802493" fill="#ff2203" stroke="none" /><line stroke="#e1ed5e" stroke-width="0.3" x1="102.19456741930631" x2="102.32365962044197" y1="184.97166512339345" y2="189.96999836594603" /><path d="M 102.22038585953345 185.97133177190398 a86.0,86.0 0 0,1 -42.740103519485714,-10.115201625700543" fill="none" id="id7" stroke="none" /><text fill="#e1ed5e" style="font-size:6.75px; font-family:Arial;" text-anchor="middle"><textPath startOffset="22.20632615414155" xlink:href="#id7">July</textPath></text><path d="M 99.81925306533755 120.99922214144158 l -0.09016467130492006 10.475353098397235 a31.47574112910643,31.47574112910643 0 0,0 -0.5417429349791588,-0.009326595920531122 l 0.2704672961767468 -10.472249025197545" fill="#ff710a" stroke="none" /><path d="M 99.45781275523022 120.99299961872073 l -0.8032084725951926 31.099505422898435 a52.10987594638297,52.10987594638297 0 0,0 -0.8964875074374864,-0.030876842399623343 l 1.338416331707322 -31.081071782072716" fill="#8bff24" stroke="none" /><path d="M 98.73552117531835 120.96189622390904 l -0.44111202774385816 7.312534119353714 a28.325826579146717,28.325826579146717 0 0,0 -0.4864451379122989,-0.033548104760380476 l 0.566919926435087 -7.303857670077049" fill="#ff4406" stroke="none" /><path d="M 98.01472825383883 120.90594882070398 l -1.9390542288214172 20.419254213785134 a41.511115863099505,41.511115863099505 0 0,0 -0.7107640068047163,-0.07367359544399082 l 2.290250832231727 -20.38285124988538" fill="#fff617" stroke="none" /><path d="M 97.2962882734958 120.8252237178851 l -3.135205622670921 24.148786963361893 a45.3514563445036,45.3514563445036 0 0,0 -0.7732885650002553,-0.10717074888757863 l 3.5504227788580067 -24.09124164898171" fill="#d9ff1c" stroke="none" /><path d="M 96.93821686468263 120.77559828337769 l -2.161692103820854 14.668069153329029 a35.82650213093311,35.82650213093311 0 0,0 -0.6093305568343963,-0.0951649014617129 l 2.4138585242637682 -14.62868594452021" fill="#ffac0f" stroke="none" /><path d="M 95.86986931433489 120.58985236759428 l -1.9996953349139652 9.969038478358733 a31.167620646713452,31.167620646713452 0 0,0 -0.5251128719874734,-0.11004250790179881 l 2.170999668330826 -9.933139989730392" fill="#ff6c0a" stroke="none" /><path d="M 94.81253420990036 120.34920634021253 l -3.6227315532610165 14.21112251635515 a35.66561240050511,35.66561240050511 0 0,0 -0.5935939236646486,-0.15677355033105111 l 3.8668159197371534 -14.146657616720518" fill="#ffaa0f" stroke="none" /><path d="M 93.76903079525671 120.05430185196036 l -7.25579240755074 23.352683400427683 a45.453922905376174,45.453922905376174 0 0,0 -0.7451816875334765,-0.23858364428613216 l 7.656695440175157 -23.224326909481842" fill="#d8ff1c" stroke="none" /><path d="M 92.40401165467489 119.57807347666478 l -5.300456253198373 13.661516746379826 a35.653732504167195,35.653732504167195 0 0,0 -0.5702541575519574,-0.22691589799447331 l 5.534831486792188 -13.568254003979286" fill="#ffaa0f" stroke="none" /><path d="M 92.06813273071674 119.44442032107085 l -8.388930641124817 20.564879352183237 a43.21009725488511,43.21009725488511 0 0,0 -0.6862762224949807,-0.2868635166615516 l 8.74167832311726 -20.417430792501712" fill="#f3ff19" stroke="none" /><line stroke="#e1ed5e" stroke-width="0.3" x1="58.666819895761336" x2="56.23545636021788" y1="174.27360380694188" y2="178.64263932499728" /><path d="M 58.180547188652646 175.14741091055294 a86.0,86.0 0 0,1 -31.652253787137756,-30.449443065178592" fill="none" id="id8" stroke="none" /><text fill="#e1ed5e" style="font-size:6.75px; font-family:Arial;" text-anchor="middle"><textPath startOffset="22.20632615414155" xlink:href="#id8">August</textPath></text><path d="M 89.7882731507175 118.34994917583269 l -11.227309389686903 20.174898890541662 a44.08850409566048,44.08850409566048 0 0,0 -0.6599655060509656,-0.3747456383774166 l 11.572923662659077 -19.978650086369612" fill="#e8ff1a" stroke="none" /><path d="M 88.54995079064634 117.60387380957326 l -4.757616272491787 7.314595331773717 a29.72572160132814,29.72572160132814 0 0,0 -0.4265291436520108,-0.28268025848922723 l 4.882820114883759 -7.2316170521931715" fill="#ff5808" stroke="none" /><path d="M 87.95078237400918 117.19931262002967 l -35.20803742279353 50.25671053248444 a82.36238956160982,82.36238956160982 0 0,0 -1.1541428790974222,-0.8234502998419976 l 36.06790762973984 -49.643215970798224" fill="#4be1ff" stroke="none" /><path d="M 86.79598089348748 116.32954008644617 l -8.624179455199199 10.665607417738494 a34.71610924660482,34.71610924660482 0 0,0 -0.46144300530634974,-0.37973617848726915 l 8.806492589050238 -10.515576120394048" fill="#ff9d0e" stroke="none" /><path d="M 86.24171649860922 115.8653595955263 l -9.645782307278868 11.123030345295245 a35.72287065696676,35.72287065696676 0 0,0 -0.4610932032237957,-0.4068611414575335 l 9.835817863409252 -10.955346062065423" fill="#ffab0f" stroke="none" /><path d="M 85.70375840098266 115.38237550388516 l -14.963895592751317 16.100753433297783 a42.98072866013801,42.98072866013801 0 0,0 -0.5375951062280881,-0.508329727933322 l 15.238826533370222 -15.84078906861853" fill="#f6ff19" stroke="none" /><path d="M 85.18274418774928 114.88116024355367 l -14.601857284005623 14.664832736243516 a41.69472288590663,41.69472288590663 0 0,0 -0.5042269410756,-0.5107792292019722 l 14.852124850136757 -14.41131301306088" fill="#fff817" stroke="none" /><path d="M 84.4343377721795 114.09645910891817 l -15.30932909196447 13.864320603342922 a41.65417495419143,41.65417495419143 0 0,0 -0.47672439644952086,-0.5356049131316546 l 15.545712338062325 -13.5987415204704" fill="#fff817" stroke="none" /><path d="M 84.19399662182784 113.82643327865904 l -16.706040271102864 14.61374805714524 a43.19579721067542,43.19579721067542 0 0,0 -0.4847339603693868,-0.5638551064486059 l 16.955116741043035 -14.324015851535107" fill="#f3ff19" stroke="none" /><path d="M 83.50135304334701 112.99209946851258 l -16.19681877996657 12.754420481610662 a41.61582354437502,41.61582354437502 0 0,0 -0.43833983161293116,-0.5666133211636492 l 16.41396542879757 -12.47372916633376" fill="#fff717" stroke="none" /><path d="M 83.28015986056508 112.70617746262583 l -16.245914792049433 12.346019738766154 a41.404753142847234,41.404753142847234 0 0,0 -0.42634816059104674,-0.5711630339323498 l 16.456024219335564 -12.064543825324497" fill="#fff417" stroke="none" /><path d="M 82.6465618267979 111.8261652097733 l -36.553773353765926 24.910969135200336 a65.23499440096485,65.23499440096485 0 0,0 -0.624382442530587,-0.9333670342609475 l 36.97715890170724 -24.278065186733567" fill="#35ff66" stroke="none" /><path d="M 82.24976979558568 111.22182372390057 l -17.24408286805275 10.901833722556312 a41.40118556541596,41.40118556541596 0 0,0 -0.3756376099943025,-0.6056474329296786 l 17.42918511771501 -10.603389958261369" fill="#fff417" stroke="none" /><line stroke="#e1ed5e" stroke-width="0.3" x1="26.63291911575756" x2="22.317208475507996" y1="142.92168965132927" y2="145.44649492493687" /><path d="M 25.769776987707644 143.4266507060508 a86.0,86.0 0 0,1 -11.730757126820373,-40.83630448921669" fill="none" id="id9" stroke="none" /><text fill="#e1ed5e" style="font-size:6.75px; font-family:Arial;" text-anchor="middle"><textPath startOffset="21.46611528233685" xlink:href="#id9">September</textPath></text><path d="M 81.87401531095188 110.60418214915194 l -18.287552719743914 10.698703735502669 a42.187185893777205,42.187185893777205 0 0,0 -0.36129910337830573,-0.6299554407321364 l 18.469003819274597 -10.382328448912224" fill="#fffe18" stroke="none" /><path d="M 81.69416730710424 110.29060199501025 l -18.463059564988793 10.378986893461645 a42.18036679179501,42.18036679179501 0 0,0 -0.35034528697509054,-0.6359784605274192 l 18.638981261415402 -10.059637914536404" fill="#fffe18" stroke="none" /><path d="M 81.51974371655577 109.97397251340807 l -19.006911337190797 10.258213324225256 a42.59846335240414,42.59846335240414 0 0,0 -0.34270969223156145,-0.6482775841824897 l 19.180673537647245 -9.92952072495664" fill="#fbff18" stroke="none" /><path d="M 81.35079622478065 109.6543875284942 l -18.381249201163648 9.515671831612604 a41.69826883104538,41.69826883104538 0 0,0 -0.3244945980942519,-0.6402586268504661 l 18.542322469044166 -9.197858993059453" fill="#fff817" stroke="none" /><path d="M 81.18737489456691 109.33194174019688 l -18.539767177847786 9.196591449139333 a41.695416431934504,41.695416431934504 0 0,0 -0.3134040808511427,-0.6457052337757925 l 18.695324515313647 -8.876097259398255" fill="#fff817" stroke="none" /><path d="M 81.02952815118164 109.00673069616217 l -13.273867377615646 6.302117823927675 a35.69395264131458,35.69395264131458 0 0,0 -0.25873931511072346,-0.5573014662184285 l 13.380381309566197 -6.072696290430421" fill="#ffaa0f" stroke="none" /><path d="M 80.87730276802145 108.67885076344099 l -39.32680545185681 17.848500730784664 a64.18757466430611,64.18757466430611 0 0,0 -0.44796482459670645,-1.0100424202056784 l 39.628211361184796 -17.16890997408629" fill="#34ff59" stroke="none" /><path d="M 80.58989483394504 108.01547362559985 l -14.830001754685613 6.124103239799286 a37.044737222394716,37.044737222394716 0 0,0 -0.23831653115559825,-0.5914820861317194 l 14.933220900098599 -5.867921785824761" fill="#ffbc11" stroke="none" /><path d="M 80.45479744820244 107.68017299344265 l -12.274016690020142 4.823003049159365 a34.1876019093349,34.1876019093349 0 0,0 -0.21050726161223207,-0.5495680338610095 l 12.355218231225884 -4.611011448465198" fill="#ff960d" stroke="none" /><path d="M 80.20201598880116 107.00284435728193 l -19.34609379127298 6.843003998034813 a41.520673690155775,41.520673690155775 0 0,0 -0.2325339014941227,-0.6758523644484451 l 19.46101852371033 -6.508978930497073" fill="#fff617" stroke="none" /><path d="M 80.0844068197444 106.66101706037122 l -19.316316836389916 6.460581657105219 a41.3680929758268,41.3680929758268 0 0,0 -0.22005412124191048,-0.6772569462337957 l 19.424663208648077 -6.127125810893618" fill="#fff417" stroke="none" /><path d="M 79.86692584326677 105.97154293290107 l -21.868142285184593 6.486170442833063 a43.809779788909836,43.809779788909836 0 0,0 -0.20821612377769252,-0.7248276422593601 l 21.97655104584839 -6.108785325069107" fill="#ecff1a" stroke="none" /><path d="M 79.58551787078972 104.9243191809786 l -20.360872519012975 4.911387634142954 a41.94485278602622,41.94485278602622 0 0,0 -0.16326421565980762,-0.7033379680409433 l 20.44239730060334 -4.560181008753436" fill="#fffb17" stroke="none" /><path d="M 79.4281124754447 104.21870165774334 l -25.405256828003587 5.209886500096979 a46.93395441965447,46.93395441965447 0 0,0 -0.15548563593773224,-0.7928179078471782 l 25.491172396916987 -4.7718048651818465" fill="#c6ff1e" stroke="none" /><path d="M 79.23777060512086 103.15116336523772 l -10.207489599027108 1.5492299340181988 a31.32438653396436,31.32438653396436 0 0,0 -0.07632104587300731,-0.5337892170769205 l 10.232644695916715 -1.3732952449608782" fill="#ff6e0a" stroke="none" /><path d="M 79.1416061653843 102.43462659150553 l -29.338342298732403 3.4244203497896732 a50.537518236467406,50.537518236467406 0 0,0 -0.0934166736089659,-0.8649223779524422 l 29.39294127384242 -2.918901649952449" fill="#9cff22" stroke="none" /><path d="M 79.07016306316243 101.71520430193888 l -17.76349484550374 1.4557219374629662 a38.823043384491015,38.823043384491015 0 0,0 -0.048849448063907716,-0.6665119077647962 l 17.785920852231985 -1.149736893201409" fill="#ffd313" stroke="none" /><path d="M 79.0235259727143 100.99374915477108 l -13.244384372092325 0.6274455734605223 a34.25923849032736,34.25923849032736 0 0,0 -0.022836012809839445,-0.5892960210800042 l 13.253222517753365 -0.39937230536652113" fill="#ff970d" stroke="none" /><path d="M 79.0095281055655 100.63252640178507 l -36.97881333510716 1.1143187184533492 a57.99559895283485,57.99559895283485 0 0,0 -0.021480292057171273,-0.9981047667098025 l 36.99251568984934 -0.47762413595341785" fill="#4cff2c" stroke="none" /><line stroke="#e1ed5e" stroke-width="0.3" x1="15.007084014347285" x2="10.007500721073583" y1="101.09737516637583" y2="101.16192664675087" /><path d="M 14.007167355692545 101.11028546245083 a86.0,86.0 0 0,1 10.666146001902526,-42.60595125391555" fill="none" id="id10" stroke="none" /><text fill="#e1ed5e" style="font-size:6.75px; font-family:Arial;" text-anchor="middle"><textPath startOffset="22.20632615414155" xlink:href="#id10">October</textPath></text><path d="M 79.01574976396665 99.18683210126434 l -23.179460484256396 -0.8982352461391481 a44.19685786693125,44.19685786693125 0 0,0 0.036002322167623634,-0.7599521189481128 l 23.160564553855274 1.2970984717102698" fill="#e7ff1a" stroke="none" /><path d="M 79.05617556472873 98.46500227214037 l -20.69918109795428 -1.5170675275718024 a41.75470047987011,41.75470047987011 0 0,0 0.05870614688716466,-0.71636368924071 l 20.67000046724762 1.8731451340202905" fill="#fff917" stroke="none" /><path d="M 79.08570108090925 98.10471618934814 l -20.226704447536537 -1.8329730119360117 a41.30958795422694,41.30958795422694 0 0,0 0.0702712961241795,-0.7076223620787111 l 20.192156025730128 2.1808709047191535" fill="#fff316" stroke="none" /><path d="M 79.12142395522702 97.74499172005258 l -20.757404356629916 -2.2419210291946965 a41.878123611229626,41.878123611229626 0 0,0 0.08357606559136675,-0.716028690943688 l 20.71573793803496 2.5988934584632464" fill="#fffa17" stroke="none" /><path d="M 79.21141760316559 97.0276538004421 l -20.098916092315687 -2.8737378875495025 a41.30331986479758,41.30331986479758 0 0,0 0.10668865162174597,-0.7029449133729531 l 20.04647154725464 3.219281913314547" fill="#fff316" stroke="none" /><path d="M 79.26566170972629 96.67025291283419 l -20.518106883680204 -3.295022280124525 a41.78099809721954,41.78099809721954 0 0,0 0.12014650947229484,-0.7091115000094461 l 20.458348512687685 3.647719568449799" fill="#fff917" stroke="none" /><path d="M 79.3925641242962 95.95851677861259 l -9.499778995006382 -1.8630749427915236 a30.68074631402053,30.68074631402053 0 0,0 0.10609797138940981,-0.5173713884223633 l 9.466301727701978 2.0263219873772895" fill="#ff6509" stroke="none" /><path d="M 79.46518482838121 95.60439243477599 l -20.190506228133337 -4.321906049816618 a41.64789126404274,41.64789126404274 0 0,0 0.1560915624766175,-0.6997278681030392 l 20.11312027865468 4.668812087469616" fill="#fff717" stroke="none" /><path d="M 79.62865764111835 94.90015583598534 l -61.114027076644945 -15.299532492043955 a84.0,84.0 0 0,0 0.3632146725187706,-1.3996142978045447 l 60.84161607225587 16.349243215397365" fill="#4dd2ff" stroke="none" /><path d="M 79.91906864156998 93.8553929516997 l -19.892123440206035 -6.086833310400097 a41.80255067795751,41.80255067795751 0 0,0 0.21646657860617294,-0.6862582090084394 l 19.78440137783166 6.428341685834951" fill="#fff917" stroke="none" /><path d="M 80.2630227832202 92.82701384747504 l -19.53963542505686 -7.101266459899498 a41.79002977098952,41.79002977098952 0 0,0 0.2515270480682597,-0.673967437442341 l 19.414503788486975 7.43655703437118" fill="#fff917" stroke="none" /><path d="M 80.38941819471856 92.48833698450439 l -28.454000961804226 -10.899057906078996 a51.46997922504082,51.46997922504082 0 0,0 0.3240315829050359,-0.8246250346790175 l 28.2621758290175 11.387231945653777" fill="#92ff23" stroke="none" /><path d="M 80.803312248108 91.48605970444005 l -19.069943971892148 -8.457728047400309 a41.86135007172085,41.86135007172085 0 0,0 0.2978089861667204,-0.6561826249413262 l 18.921532668762076 8.784732681183707" fill="#fffa17" stroke="none" /><path d="M 81.43458229118936 90.18545643968196 l -27.047724400208658 -14.298685518254972 a51.594636830326934,51.594636830326934 0 0,0 0.4218276794062548,-0.7815826254181806 l 26.79758862158393 14.762149127005626" fill="#90ff24" stroke="none" /><line stroke="#e1ed5e" stroke-width="0.3" x1="26.266209847984243" x2="21.928928074336255" y1="57.71137044288968" y2="55.22380399835378" /><path d="M 25.398753493254645 57.2138571539825 a86.0,86.0 0 0,1 29.58750427330803,-30.4925239686951" fill="none" id="id11" stroke="none" /><text fill="#e1ed5e" style="font-size:6.75px; font-family:Arial;" text-anchor="middle"><textPath startOffset="21.46611528233685" xlink:href="#id11">November</textPath></text><path d="M 81.78341655067845 89.55222093294921 l -17.71084149627457 -10.15772027501257 a41.41698282537267,41.41698282537267 0 0,0 0.36001283463811845,-0.6153786342715047 l 17.533368987166124 10.461078321637965" fill="#fff517" stroke="none" /><path d="M 82.15384107792192 88.93136811851018 l -8.69364016666451 -5.392011980566753 a31.23001332091107,31.23001332091107 0 0,0 0.2872750829748094,-0.45440019200575055 l 8.599537487443738 5.540859820286719" fill="#ff6d0a" stroke="none" /><path d="M 82.95767976084542 87.72973835380427 l -16.77442830315332 -12.07738273642796 a41.669896435633135,41.669896435633135 0 0,0 0.4241149905228422,-0.5784923704431443 l 16.564050700116844 12.364337550542608" fill="#fff817" stroke="none" /><path d="M 83.17141714833178 87.43820079747577 l -17.22582739551499 -12.85832483620864 a42.495712294630636,42.495712294630636 0 0,0 0.44261117695951735,-0.5824244265797396 l 17.001940278331364 13.152934038669407" fill="#fcff18" stroke="none" /><path d="M 83.6137871275137 86.86637796730984 l -16.62788054516475 -13.327319740340965 a42.30971287665675,42.30971287665675 0 0,0 0.4603730091490923,-0.5643628740994439 l 16.396009043939266 13.61156678404849" fill="#feff18" stroke="none" /><path d="M 84.07557802195018 86.31012108654704 l -15.362059162721602 -13.206427843273865 a41.25839574345802,41.25839574345802 0 0,0 0.4676111372699179,-0.5345603646579825 l 15.13245616187384 13.46890376413479" fill="#fff316" stroke="none" /><path d="M 84.31358615837235 86.03803664274999 l -15.198428163663916 -13.527623282878654 a41.346714976367394,41.346714976367394 0 0,0 0.4777639680310172,-0.5275589063560833 l 14.963320555016853 13.787234976504294" fill="#fff417" stroke="none" /><path d="M 86.37877921826538 84.01681056812373 l -15.755110901597554 -18.487103769592114 a45.28984407750089,45.28984407750089 0 0,0 0.597701854208402,-0.5005581139144123 l 15.434551510430042 18.755563040900338" fill="#daff1c" stroke="none" /><path d="M 86.93701828274178 83.55741782278169 l -12.799306325208388 -16.110689781153646 a41.57611643705118,41.57611643705118 0 0,0 0.5641828413076514,-0.4403536565605624 l 12.520090928741311 16.32862182693743" fill="#fff717" stroke="none" /><path d="M 87.22198572758235 83.33499621200491 l -11.305740727818247 -14.744874128203135 a39.58039521811101,39.58039521811101 0 0,0 0.5442376835710754,-0.4099085400352836 l 11.050256890488782 14.937299257744272" fill="#ffdd14" stroke="none" /><path d="M 87.80319425747018 82.90503203632743 l -5.081507518036964 -7.122209704881735 a29.749147943438707,29.749147943438707 0 0,0 0.4194188728557617,-0.29382972372986066 l 4.958157505597542 7.208624271375538" fill="#ff5808" stroke="none" /><path d="M 88.09926311788651 82.69761687909137 l -24.618601854608638 -35.792782027620355 a64.44190146106041,64.44190146106041 0 0,0 0.9193567219642957,-0.6207537625902737 l 23.998840438237806 36.21124770250929" fill="#34ff5c" stroke="none" /><path d="M 88.70189139769569 82.29822771554957 l -10.870250462488395 -17.03140809981821 a41.204732291712816,41.204732291712816 0 0,0 0.6011590859909435,-0.37644576449708994 l 10.57547222412521 17.215998205638233" fill="#fff216" stroke="none" /><path d="M 89.00827224532344 82.1063720568725 l -12.723128200614921 -20.712205339843397 a45.30788845722968,45.30788845722968 0 0,0 0.6680495698065679,-0.4024923909508041 l 12.364716564590706 20.928144340252818" fill="#d9ff1c" stroke="none" /><line stroke="#e1ed5e" stroke-width="0.3" x1="56.76296977257108" x2="54.21961505331056" y1="26.818313649435495" y2="22.513508569990535" /><path d="M 56.25429882871898 25.957352633546506 a86.0,86.0 0 0,1 42.26535254187918,-11.944610805530505" fill="none" id="id12" stroke="none" /><text fill="#e1ed5e" style="font-size:6.75px; font-family:Arial;" text-anchor="middle"><textPath startOffset="22.20632615414155" xlink:href="#id12">December</textPath></text><path d="M 89.63071344664047 81.73862282372117 l -10.057177288851449 -17.711720749092297 a41.36791267933992,41.36791267933992 0 0,0 0.6222441476559321,-0.3462781944810842 l 9.750809052123472 17.882214341133565" fill="#fff417" stroke="none" /><path d="M 90.26544431104013 81.39251694778311 l -14.237210434753027 -27.214252025489078 a51.71341196074244,51.71341196074244 0 0,0 0.7922975213986003,-0.40584556346305 l 13.766652425765663 27.455290114264635" fill="#8fff24" stroke="none" /><path d="M 90.91171255644093 81.06846463323043 l -9.186199078717191 -19.13549211828362 a42.22624112090313,42.22624112090313 0 0,0 0.6579688642702833,-0.3089252041741513 l 8.855452003147299 19.29078230509778" fill="#ffff18" stroke="none" /><path d="M 91.56875222667455 80.76684994638697 l -8.213668960223787 -18.736814745556867 a41.45806893617922,41.45806893617922 0 0,0 0.6560566513400681,-0.28088921990433 l 7.88992855109341 18.875423493423984" fill="#fff517" stroke="none" /><path d="M 91.90106846888425 80.62456947434976 l -8.027205900964749 -19.203838142314225 a41.81402013001539,41.81402013001539 0 0,0 0.666467953089158,-0.2718690120787798 l 7.69545407828721 19.339168040576585" fill="#fffa17" stroke="none" /><path d="M 92.91201910852362 80.23233633223022 l -2.901072481041508 -8.090798488186367 a29.59518712517041,29.59518712517041 0 0,0 0.4810176170921519,-0.16781760157495682 l 2.7613728598860696 8.139536942933534" fill="#ff5608" stroke="none" /><path d="M 93.25333710446033 80.11325718540243 l -6.532331822344539 -19.254971671470486 a41.332862393336214,41.332862393336214 0 0,0 0.6757276983582402,-0.22277679809559006 l 6.19992130174389 19.36456219382531" fill="#fff417" stroke="none" /><path d="M 93.59665428221793 80.00007090966166 l -6.472427362747748 -20.21569566950657 a42.22655571137608,42.22655571137608 0 0,0 0.6941535567434449,-0.21567688904655397 l 6.123488433293574 20.32411269343565" fill="#ffff18" stroke="none" /><path d="M 94.28887869178378 79.79150937346287 l -5.614214811634583 -19.865592284489406 a41.64367130054008,41.64367130054008 0 0,0 0.6914874325224697,-0.18900963639748464 l 5.2714294898883916 19.959288461713186" fill="#fff717" stroke="none" /><path d="M 94.63758080256005 79.69619591428918 l -5.269319158261009 -19.951298083053732 a41.63540694026847,41.63540694026847 0 0,0 0.6945006174837551,-0.17704367109790922 l 4.925109652092252 20.039044750320503" fill="#fff717" stroke="none" /></svg>